<svg xmlns="http://www.w3.org/2000/svg" xmlns:xlink="http://www.w3.org/1999/xlink" preserveAspectRatio="xMidYMid meet" version="1.0" viewBox="0 37.62 375.02 297.54" zoomAndPan="magnify"><defs><clipPath id="id1"><path d="M 0 37.621094 L 375 37.621094 L 375 335.160156 L 0 335.160156 Z M 0 37.621094" clip-rule="nonzero"/></clipPath></defs><g clip-path="url(#id1)"><path fill="#008037" fill-opacity="1" fill-rule="nonzero" d="M 355.148438 331.40625 L 138.140625 121.253906 L 187.511719 43.164062 L 369.691406 331.332031 L 355.300781 331.332031 Z M 288.78125 331.40625 L 217.132812 203.019531 L 349.789062 331.332031 L 288.933594 331.332031 Z M 160.03125 331.40625 L 166.613281 250.332031 L 281.742188 331.332031 L 160.105469 331.332031 Z M 162.632812 252.78125 L 156.207031 331.40625 L 98.71875 331.40625 Z M 208.792969 196.054688 L 281.96875 326.890625 L 167.839844 246.351562 Z M 136.457031 125.082031 L 206.496094 192.835938 L 93.742188 331.40625 L 66.414062 331.40625 Z M 128.648438 136.261719 L 62.359375 331.332031 L 5.332031 331.332031 Z M 374.746094 332.25 L 189.121094 38.496094 C 188.546875 37.605469 187.363281 37.351562 186.472656 37.925781 C 186.246094 38.074219 186.050781 38.269531 185.902344 38.496094 L 0.277344 332.25 C -0.269531 333.152344 0.015625 334.332031 0.917969 334.878906 C 1.210938 335.058594 1.546875 335.152344 1.886719 335.160156 L 373.136719 335.160156 C 374.195312 335.144531 375.039062 334.273438 375.023438 333.21875 C 375.015625 332.875 374.921875 332.542969 374.746094 332.25"/></g></svg>