<svg xmlns="http://www.w3.org/2000/svg" xmlns:svgjs="http://svgjs.com/svgjs" xmlns:xlink="http://www.w3.org/1999/xlink" width="500" height="500" version="1.1"><svg xmlns="http://www.w3.org/2000/svg" xmlns:xlink="http://www.w3.org/1999/xlink" width="500" height="500" preserveAspectRatio="xMidYMid meet" version="1.0" viewBox="0 0 375 375" zoomAndPan="magnify"><defs><clipPath id="SvgjsClipPath1000"><path d="M 28.613281 85.332031 L 346.613281 85.332031 L 346.613281 337.148438 L 28.613281 337.148438 Z M 28.613281 85.332031" clip-rule="nonzero"/></clipPath></defs><path fill="#000" fill-opacity="1" fill-rule="nonzero" d="M 0 349.875 L 187.5 25.125 L 375 349.875 Z M 0 349.875"/><g clip-path="url(#id1)"><path fill="#C9E265" fill-opacity="1" fill-rule="nonzero" d="M 329.777344 333.972656 L 145.753906 156.113281 L 187.625 90.023438 L 342.113281 333.910156 L 329.90625 333.910156 Z M 273.5 333.972656 L 212.742188 225.3125 L 325.234375 333.910156 L 273.628906 333.910156 Z M 164.320312 333.972656 L 169.902344 265.355469 L 267.53125 333.910156 L 164.382812 333.910156 Z M 166.527344 267.429688 L 161.074219 333.972656 L 112.324219 333.972656 Z M 205.667969 219.417969 L 267.722656 330.148438 L 170.941406 261.988281 Z M 144.328125 159.351562 L 203.722656 216.695312 L 108.105469 333.972656 L 84.933594 333.972656 Z M 137.707031 168.8125 L 81.492188 333.910156 L 33.132812 333.910156 Z M 346.398438 334.6875 L 188.988281 86.070312 C 188.5 85.320312 187.496094 85.105469 186.742188 85.585938 C 186.550781 85.714844 186.386719 85.878906 186.257812 86.070312 L 28.847656 334.6875 C 28.386719 335.449219 28.625 336.445312 29.390625 336.910156 C 29.640625 337.0625 29.925781 337.144531 30.214844 337.148438 L 345.03125 337.148438 C 345.929688 337.136719 346.644531 336.398438 346.632812 335.503906 C 346.628906 335.214844 346.546875 334.933594 346.398438 334.6875"/></g><path fill="none" stroke="#FFF" stroke-linecap="butt" stroke-linejoin="miter" stroke-miterlimit="4" stroke-opacity="1" strokeWidth="1" d="M 0.0000140018 0.0000963674 L 92.343956 -0.000116092" transform="matrix(-1.921985, -3.222671, 3.220709, -1.920815, 364.874717, 343.75023)"/><path fill="none" stroke="#FFF" stroke-linecap="butt" stroke-linejoin="miter" stroke-miterlimit="4" stroke-opacity="1" strokeWidth="1" d="M -0.0000956065 -0.000461091 L 91.112012 -0.000168592" transform="matrix(1.894676, -3.240477, 3.237257, 1.892794, 15.040736, 342.809157)"/><path fill="none" stroke="#FFF" stroke-linecap="butt" stroke-linejoin="miter" stroke-miterlimit="4" stroke-opacity="1" strokeWidth="1" d="M -0.000428441 -0.00018645 L 94.151654 -0.00018645" transform="matrix(3.751991, 0, 0, 3.75, 13.419576, 342.836637)"/></svg><style>@media (prefers-color-scheme:light){:root{filter:none}}</style></svg>
